<?xml version="1.0" encoding="UTF-8"?>
<!DOCTYPE svg PUBLIC "-//W3C//DTD SVG 1.1//EN" "http://www.w3.org/Graphics/SVG/1.1/DTD/svg11.dtd">
<svg xmlns="http://www.w3.org/2000/svg" version="1.1" width="500px" height="500px" style="shape-rendering:geometricPrecision; text-rendering:geometricPrecision; image-rendering:optimizeQuality; fill-rule:evenodd; clip-rule:evenodd" xmlns:xlink="http://www.w3.org/1999/xlink">
    <g><path style="opacity:1" fill="#777a7b" d="M 231.5,119.5 C 231.833,118.167 232.167,116.833 232.5,115.5C 235.257,111.085 238.757,107.085 243,103.5C 243.628,99.5328 245.795,96.6994 249.5,95C 247.833,93.3333 246.167,91.6667 244.5,90C 245.167,89.6667 245.833,89.3333 246.5,89C 244.236,88.7638 242.069,88.2638 240,87.5C 238.559,88.87 236.892,89.87 235,90.5C 233.685,88.6841 232.185,87.0175 230.5,85.5C 229.251,87.4755 227.751,87.8088 226,86.5C 221.852,87.0736 218.185,88.7402 215,91.5C 214.667,91.1667 214.333,90.8333 214,90.5C 210.481,90.7928 207.647,92.2928 205.5,95C 195.136,95.7575 185.136,98.0908 175.5,102C 163.536,103.764 151.536,104.931 139.5,105.5C 139.611,104.883 139.944,104.383 140.5,104C 149.397,103.962 158.064,103.129 166.5,101.5C 181.503,98.8289 195.836,94.1622 209.5,87.5C 216.349,86.0756 222.349,83.0756 227.5,78.5C 230.28,76.5919 232.947,74.4252 235.5,72C 236.833,71.3333 238.167,71.3333 239.5,72C 244.675,77.8761 250.175,83.3761 256,88.5C 258,90.8333 258,93.1667 256,95.5C 248.019,103.648 239.852,111.648 231.5,119.5 Z"/></g>
    <g><path style="opacity:1" fill="#e7e8e6" d="M 350.5,79.5 C 365.309,84.5297 380.643,87.863 396.5,89.5C 397.209,90.404 398.209,90.7373 399.5,90.5C 398.615,93.6581 396.448,95.3248 393,95.5C 382.663,92.4778 372.163,90.1444 361.5,88.5C 355.619,86.6963 349.619,85.1963 343.5,84C 340.5,83.3333 337.5,83.3333 334.5,84C 331.473,86.6816 328.139,89.015 324.5,91C 312.94,103.305 301.273,115.471 289.5,127.5C 287.658,129.168 285.492,130.168 283,130.5C 281.319,130.392 280.152,129.725 279.5,128.5C 296.298,111.201 313.298,94.0348 330.5,77C 337.118,77.9203 343.784,78.7536 350.5,79.5 Z"/></g>
    <g><path style="opacity:0.486" fill="#a9a8a6" d="M 227.5,78.5 C 222.349,83.0756 216.349,86.0756 209.5,87.5C 215.461,84.5194 221.461,81.5194 227.5,78.5 Z"/></g>
    <g><path style="opacity:0.812" fill="#a09c97" d="M 351.5,77.5 C 367.084,80.726 382.75,83.5593 398.5,86C 403.859,88.6919 407.859,92.6919 410.5,98C 409.837,99.5185 408.837,100.685 407.5,101.5C 407.698,99.4247 407.865,97.4247 408,95.5C 405.833,93.3333 403.667,91.1667 401.5,89C 399.613,88.2204 397.946,88.3871 396.5,89.5C 380.643,87.863 365.309,84.5297 350.5,79.5C 352.698,79.5912 353.031,78.9245 351.5,77.5 Z"/></g>
    <g><path style="opacity:1" fill="#9b9b99" d="M 298.5,266.5 C 283.936,253.724 269.603,240.724 255.5,227.5C 256.873,227.657 258.207,227.49 259.5,227C 264.604,224.227 269.437,221.06 274,217.5C 273.737,218.951 273.904,220.284 274.5,221.5C 275.833,222.833 277.167,222.833 278.5,221.5C 279.036,217.468 281.203,214.801 285,213.5C 285.772,213.645 286.439,213.978 287,214.5C 289.155,211.013 291.489,207.68 294,204.5C 296.333,203.167 298.667,201.833 301,200.5C 302.438,199.1 303.271,197.433 303.5,195.5C 304.675,195.719 305.675,195.386 306.5,194.5C 302.15,176.906 298.817,159.072 296.5,141C 299.5,138.667 299.167,137 295.5,136C 309.702,121.297 324.369,107.13 339.5,93.5C 348.05,95.2454 356.717,96.4121 365.5,97C 368.041,98.0833 370.541,99.25 373,100.5C 376.294,99.2092 379.127,99.8758 381.5,102.5C 374.871,109.962 367.704,116.962 360,123.5C 354.061,130.772 347.395,137.439 340,143.5C 339.122,146.215 337.622,148.549 335.5,150.5C 347.973,164.141 360.639,177.641 373.5,191C 375.618,191.635 377.618,192.469 379.5,193.5C 385.797,188.538 391.797,183.205 397.5,177.5C 397.977,176.069 398.643,174.736 399.5,173.5C 409.11,166.558 417.776,158.558 425.5,149.5C 426.518,153.057 428.018,156.39 430,159.5C 432.277,169.053 434.11,178.719 435.5,188.5C 435.333,190.167 435.167,191.833 435,193.5C 430.527,197.973 426.027,202.473 421.5,207C 420.5,207.333 419.5,207.667 418.5,208C 411.398,217.211 403.398,225.544 394.5,233C 385.105,231.988 375.772,230.321 366.5,228C 365.328,227.581 364.328,226.915 363.5,226C 353.764,225.142 344.097,223.642 334.5,221.5C 332.382,221.76 330.716,222.76 329.5,224.5C 320.766,234.064 312.599,244.064 305,254.5C 303.989,255.337 302.822,255.67 301.5,255.5C 300.881,258.311 299.548,260.811 297.5,263C 297.989,264.138 298.322,265.305 298.5,266.5 Z"/></g>
    <g><path style="opacity:0.333" fill="#c2bfbc" d="M 321.5,82.5 C 312.114,92.8878 302.114,102.554 291.5,111.5C 300.886,101.112 310.886,91.4455 321.5,82.5 Z"/></g>
    <g><path style="opacity:0.51" fill="#b4aea8" d="M 166.5,101.5 C 158.064,103.129 149.397,103.962 140.5,104C 139.944,104.383 139.611,104.883 139.5,105.5C 139.5,106.167 139.5,106.833 139.5,107.5C 138.167,108.5 136.833,109.5 135.5,110.5C 134.833,110.5 134.167,110.5 133.5,110.5C 135.263,106.901 137.93,104.068 141.5,102C 149.827,101.5 158.16,101.334 166.5,101.5 Z"/></g>
    <g><path style="opacity:1" fill="#656f75" d="M 232.5,115.5 C 230.629,115.859 229.129,116.859 228,118.5C 227.731,115.72 228.898,113.554 231.5,112C 231,111.833 230.5,111.667 230,111.5C 228.642,113.189 226.975,114.522 225,115.5C 223.302,114.267 221.302,113.6 219,113.5C 217.167,113.667 215.333,113.833 213.5,114C 211.157,116.412 208.491,117.245 205.5,116.5C 198.75,119.703 192.083,123.203 185.5,127C 180.647,127.029 175.98,127.862 171.5,129.5C 162.806,126.282 159.473,120.115 161.5,111C 156.909,109.947 152.242,109.114 147.5,108.5C 148.729,107.719 150.062,107.219 151.5,107C 147.413,106.238 143.413,106.404 139.5,107.5C 139.5,106.833 139.5,106.167 139.5,105.5C 151.536,104.931 163.536,103.764 175.5,102C 185.136,98.0908 195.136,95.7575 205.5,95C 207.647,92.2928 210.481,90.7928 214,90.5C 214.333,90.8333 214.667,91.1667 215,91.5C 218.185,88.7402 221.852,87.0736 226,86.5C 227.751,87.8088 229.251,87.4755 230.5,85.5C 232.185,87.0175 233.685,88.6841 235,90.5C 236.892,89.87 238.559,88.87 240,87.5C 242.069,88.2638 244.236,88.7638 246.5,89C 245.833,89.3333 245.167,89.6667 244.5,90C 246.167,91.6667 247.833,93.3333 249.5,95C 245.795,96.6994 243.628,99.5328 243,103.5C 238.757,107.085 235.257,111.085 232.5,115.5 Z"/></g>
    <g><path style="opacity:1" fill="#586269" d="M 232.5,115.5 C 232.167,116.833 231.833,118.167 231.5,119.5C 225.896,123.765 220.563,128.432 215.5,133.5C 214.282,132.839 212.949,132.172 211.5,131.5C 212.315,129.724 213.482,129.057 215,129.5C 216.289,127.945 216.956,126.279 217,124.5C 214.198,125.33 211.365,126.163 208.5,127C 209.5,127.333 210.5,127.667 211.5,128C 201.504,131.639 192.171,136.639 183.5,143C 179.848,143.499 176.182,143.665 172.5,143.5C 172.5,144.833 172.5,146.167 172.5,147.5C 169.951,147.613 167.618,146.946 165.5,145.5C 164.012,147.271 162.179,148.604 160,149.5C 157.534,148.89 155.034,149.224 152.5,150.5C 150.142,148.6 147.475,147.266 144.5,146.5C 143.667,145.5 142.833,144.5 142,143.5C 140.995,137.223 140.328,131.223 140,125.5C 138.007,127.378 135.841,127.712 133.5,126.5C 133.64,122.454 134.14,118.787 135,115.5C 134.167,116.5 133.333,117.5 132.5,118.5C 131.313,119.653 130.313,119.653 129.5,118.5C 131.909,116.098 133.909,113.431 135.5,110.5C 136.833,109.5 138.167,108.5 139.5,107.5C 143.413,106.404 147.413,106.238 151.5,107C 150.062,107.219 148.729,107.719 147.5,108.5C 152.242,109.114 156.909,109.947 161.5,111C 159.473,120.115 162.806,126.282 171.5,129.5C 175.98,127.862 180.647,127.029 185.5,127C 192.083,123.203 198.75,119.703 205.5,116.5C 208.491,117.245 211.157,116.412 213.5,114C 215.333,113.833 217.167,113.667 219,113.5C 221.302,113.6 223.302,114.267 225,115.5C 226.975,114.522 228.642,113.189 230,111.5C 230.5,111.667 231,111.833 231.5,112C 228.898,113.554 227.731,115.72 228,118.5C 229.129,116.859 230.629,115.859 232.5,115.5 Z"/></g>
    <g><path style="opacity:1" fill="#c0c2c2" d="M 361.5,88.5 C 353.182,88.7526 345.015,87.7526 337,85.5C 335.634,85.7065 334.301,86.0398 333,86.5C 324.848,94.0875 316.681,101.754 308.5,109.5C 306.577,112.09 304.744,114.756 303,117.5C 297.605,123.14 292.105,128.64 286.5,134C 282.778,136.298 280.111,135.465 278.5,131.5C 278.263,130.209 278.596,129.209 279.5,128.5C 280.152,129.725 281.319,130.392 283,130.5C 285.492,130.168 287.658,129.168 289.5,127.5C 301.273,115.471 312.94,103.305 324.5,91C 328.139,89.015 331.473,86.6816 334.5,84C 337.5,83.3333 340.5,83.3333 343.5,84C 349.619,85.1963 355.619,86.6963 361.5,88.5 Z"/></g>
    <g><path style="opacity:1" fill="#4e5960" d="M 215.5,133.5 C 205.833,143.5 196.167,153.5 186.5,163.5C 184.938,163.733 183.605,164.4 182.5,165.5C 181.206,163.672 180.206,161.672 179.5,159.5C 180.833,159.5 182.167,159.5 183.5,159.5C 183.997,157.403 184.33,155.57 184.5,154C 180.287,148.28 178.62,149.447 179.5,157.5C 178.167,157.5 176.833,157.5 175.5,157.5C 175.719,156.325 175.386,155.325 174.5,154.5C 171.581,155.184 169.081,156.518 167,158.5C 163.81,156.928 161.31,157.761 159.5,161C 164.379,161.111 164.712,162.278 160.5,164.5C 159.548,166.045 159.215,167.712 159.5,169.5C 157.801,169.34 156.134,169.506 154.5,170C 149.037,173.631 144.037,177.798 139.5,182.5C 138.311,183.429 136.978,183.762 135.5,183.5C 135.762,184.978 135.429,186.311 134.5,187.5C 132.075,188.308 129.742,189.308 127.5,190.5C 129.396,191.466 131.396,191.799 133.5,191.5C 133.5,192.833 133.5,194.167 133.5,195.5C 125.359,194.719 118.025,192.053 111.5,187.5C 109.833,184.833 108.167,182.167 106.5,179.5C 105.675,178.614 104.675,178.281 103.5,178.5C 103.337,176.143 103.503,173.81 104,171.5C 106.333,168.833 108.667,166.167 111,163.5C 111.49,162.207 111.657,160.873 111.5,159.5C 113.5,159.5 115.5,159.5 117.5,159.5C 118.639,156.996 119.306,154.33 119.5,151.5C 120.5,151.5 121.5,151.5 122.5,151.5C 122.5,148.833 122.5,146.167 122.5,143.5C 120.143,143.663 117.81,143.497 115.5,143C 117.781,141.149 117.781,139.482 115.5,138C 117.731,136.39 119.731,134.557 121.5,132.5C 119.785,132.405 118.119,132.072 116.5,131.5C 119.833,126.167 124.167,121.833 129.5,118.5C 130.313,119.653 131.313,119.653 132.5,118.5C 133.333,117.5 134.167,116.5 135,115.5C 134.14,118.787 133.64,122.454 133.5,126.5C 135.841,127.712 138.007,127.378 140,125.5C 140.328,131.223 140.995,137.223 142,143.5C 142.833,144.5 143.667,145.5 144.5,146.5C 147.475,147.266 150.142,148.6 152.5,150.5C 155.034,149.224 157.534,148.89 160,149.5C 162.179,148.604 164.012,147.271 165.5,145.5C 167.618,146.946 169.951,147.613 172.5,147.5C 172.5,146.167 172.5,144.833 172.5,143.5C 176.182,143.665 179.848,143.499 183.5,143C 192.171,136.639 201.504,131.639 211.5,128C 210.5,127.667 209.5,127.333 208.5,127C 211.365,126.163 214.198,125.33 217,124.5C 216.956,126.279 216.289,127.945 215,129.5C 213.482,129.057 212.315,129.724 211.5,131.5C 212.949,132.172 214.282,132.839 215.5,133.5 Z"/></g>
    <g><path style="opacity:0.773" fill="#8b8884" d="M 351.5,77.5 C 353.031,78.9245 352.698,79.5912 350.5,79.5C 343.784,78.7536 337.118,77.9203 330.5,77C 313.298,94.0348 296.298,111.201 279.5,128.5C 278.596,129.209 278.263,130.209 278.5,131.5C 283.111,149.789 287.444,168.122 291.5,186.5C 291.607,188.903 290.607,190.736 288.5,192C 276.347,201.822 264.514,211.988 253,222.5C 252.536,223.094 252.369,223.761 252.5,224.5C 251.596,223.791 251.263,222.791 251.5,221.5C 249.517,221.843 248.183,221.176 247.5,219.5C 248.423,220.303 249.423,220.47 250.5,220C 262.389,209.476 274.556,199.31 287,189.5C 287.667,187.5 287.667,185.5 287,183.5C 283.165,165.656 279.331,147.823 275.5,130C 275.667,128.833 275.833,127.667 276,126.5C 281.67,121.996 286.837,116.996 291.5,111.5C 302.114,102.554 312.114,92.8878 321.5,82.5C 324.458,78.7115 327.958,75.3781 332,72.5C 338.613,74.2302 345.113,75.8968 351.5,77.5 Z"/></g>
    <g><path style="opacity:1" fill="#939493" d="M 401.5,92.5 C 404.246,94.0707 405.413,96.404 405,99.5C 388.694,115.394 372.527,131.394 356.5,147.5C 355.334,149.167 355.334,150.834 356.5,152.5C 352.317,152.65 349.984,150.65 349.5,146.5C 350.701,142.736 352.201,139.069 354,135.5C 366.709,123.289 379.542,111.289 392.5,99.5C 393.386,98.675 393.719,97.675 393.5,96.5C 396.827,96.1706 399.493,94.8373 401.5,92.5 Z"/></g>
    <g><path style="opacity:1" fill="#495359" d="M 116.5,131.5 C 118.119,132.072 119.785,132.405 121.5,132.5C 119.731,134.557 117.731,136.39 115.5,138C 117.781,139.482 117.781,141.149 115.5,143C 117.81,143.497 120.143,143.663 122.5,143.5C 122.5,146.167 122.5,148.833 122.5,151.5C 121.5,151.5 120.5,151.5 119.5,151.5C 119.306,154.33 118.639,156.996 117.5,159.5C 115.5,159.5 113.5,159.5 111.5,159.5C 111.657,160.873 111.49,162.207 111,163.5C 108.667,166.167 106.333,168.833 104,171.5C 103.503,173.81 103.337,176.143 103.5,178.5C 104.675,178.281 105.675,178.614 106.5,179.5C 108.167,182.167 109.833,184.833 111.5,187.5C 118.025,192.053 125.359,194.719 133.5,195.5C 133.5,194.167 133.5,192.833 133.5,191.5C 131.396,191.799 129.396,191.466 127.5,190.5C 129.742,189.308 132.075,188.308 134.5,187.5C 135.429,186.311 135.762,184.978 135.5,183.5C 136.978,183.762 138.311,183.429 139.5,182.5C 144.037,177.798 149.037,173.631 154.5,170C 156.134,169.506 157.801,169.34 159.5,169.5C 159.215,167.712 159.548,166.045 160.5,164.5C 164.712,162.278 164.379,161.111 159.5,161C 161.31,157.761 163.81,156.928 167,158.5C 169.081,156.518 171.581,155.184 174.5,154.5C 175.386,155.325 175.719,156.325 175.5,157.5C 176.833,157.5 178.167,157.5 179.5,157.5C 178.62,149.447 180.287,148.28 184.5,154C 184.33,155.57 183.997,157.403 183.5,159.5C 182.167,159.5 180.833,159.5 179.5,159.5C 180.206,161.672 181.206,163.672 182.5,165.5C 180.42,167.573 178.754,169.907 177.5,172.5C 176.833,172.5 176.5,172.833 176.5,173.5C 174.611,174.604 172.945,175.937 171.5,177.5C 168.083,180.413 164.749,183.58 161.5,187C 160.552,187.483 159.552,187.649 158.5,187.5C 158.5,188.5 158.5,189.5 158.5,190.5C 154.775,192.884 151.108,195.551 147.5,198.5C 146.614,199.325 146.281,200.325 146.5,201.5C 146.5,201.833 146.5,202.167 146.5,202.5C 131.513,217.261 116.846,232.428 102.5,248C 101.5,248.5 100.5,249 99.5,249.5C 97.4807,247.81 95.4807,246.144 93.5,244.5C 93.56,243.957 93.8933,243.624 94.5,243.5C 95.9285,244.935 97.5952,245.935 99.5,246.5C 101.915,246.281 102.915,244.948 102.5,242.5C 105.263,242.256 107.429,240.923 109,238.5C 109.684,237.216 109.517,236.049 108.5,235C 111.329,231.529 114.329,228.196 117.5,225C 113.834,215.38 108.334,206.88 101,199.5C 100.51,198.207 100.343,196.873 100.5,195.5C 99.5,195.5 98.5,195.5 97.5,195.5C 97.6602,193.801 97.4935,192.134 97,190.5C 93.9837,188.712 91.4837,186.379 89.5,183.5C 88.8076,184.025 88.3076,184.692 88,185.5C 87.51,184.207 87.3433,182.873 87.5,181.5C 84.0601,180.909 80.7268,179.909 77.5,178.5C 76.6143,177.675 76.281,176.675 76.5,175.5C 74.857,175.48 73.5237,176.147 72.5,177.5C 71.8933,177.376 71.56,177.043 71.5,176.5C 86.2102,161.123 101.21,146.123 116.5,131.5 Z"/></g>
    <g><path style="opacity:1" fill="#e6e6e5" d="M 434.5,125.5 C 433.908,130.353 431.242,133.353 426.5,134.5C 412.478,148.356 398.312,162.022 384,175.5C 380.412,176.939 376.912,176.772 373.5,175C 372.733,173.391 372.733,171.558 373.5,169.5C 374.508,171.339 376.008,172.672 378,173.5C 387.702,163.965 397.202,154.298 406.5,144.5C 414.272,137.23 421.938,129.73 429.5,122C 431.772,122.077 433.438,123.243 434.5,125.5 Z"/></g>
    <g><path style="opacity:0.863" fill="#7b7b7a" d="M 133.5,110.5 C 134.167,110.5 134.833,110.5 135.5,110.5C 133.909,113.431 131.909,116.098 129.5,118.5C 124.167,121.833 119.833,126.167 116.5,131.5C 101.21,146.123 86.2102,161.123 71.5,176.5C 69.0976,178.909 66.4309,180.909 63.5,182.5C 68.8943,177.11 73.8943,171.444 78.5,165.5C 96.6021,146.731 114.935,128.398 133.5,110.5 Z"/></g>
    <g><path style="opacity:0.808" fill="#84827e" d="M 407.5,101.5 C 398.704,109.126 390.037,116.96 381.5,125C 373.969,132.197 366.802,139.697 360,147.5C 359.333,148.833 359.333,150.167 360,151.5C 365.384,157.387 371.217,162.72 377.5,167.5C 380.468,165.86 383.135,163.86 385.5,161.5C 392.744,155.762 399.577,149.428 406,142.5C 406.464,143.094 406.631,143.761 406.5,144.5C 397.202,154.298 387.702,163.965 378,173.5C 376.008,172.672 374.508,171.339 373.5,169.5C 369.446,164.779 365.113,160.446 360.5,156.5C 359.473,154.806 358.139,153.473 356.5,152.5C 355.334,150.834 355.334,149.167 356.5,147.5C 372.527,131.394 388.694,115.394 405,99.5C 405.413,96.404 404.246,94.0707 401.5,92.5C 400.833,91.8333 400.167,91.1667 399.5,90.5C 398.209,90.7373 397.209,90.404 396.5,89.5C 397.946,88.3871 399.613,88.2204 401.5,89C 403.667,91.1667 405.833,93.3333 408,95.5C 407.865,97.4247 407.698,99.4247 407.5,101.5 Z"/></g>
    <g><path style="opacity:1" fill="#a5a7a6" d="M 361.5,88.5 C 372.163,90.1444 382.663,92.4778 393,95.5C 396.448,95.3248 398.615,93.6581 399.5,90.5C 400.167,91.1667 400.833,91.8333 401.5,92.5C 399.493,94.8373 396.827,96.1706 393.5,96.5C 393.719,97.675 393.386,98.675 392.5,99.5C 379.542,111.289 366.709,123.289 354,135.5C 352.201,139.069 350.701,142.736 349.5,146.5C 349.984,150.65 352.317,152.65 356.5,152.5C 358.139,153.473 359.473,154.806 360.5,156.5C 357.817,156.663 356.15,157.996 355.5,160.5C 360.591,167.426 366.591,173.592 373.5,179C 383.448,180.553 390.448,176.719 394.5,167.5C 405.832,157.167 416.499,146.167 426.5,134.5C 431.242,133.353 433.908,130.353 434.5,125.5C 435.764,127.772 435.598,130.105 434,132.5C 433.333,135.833 433.333,139.167 434,142.5C 435.999,148.181 437.832,153.847 439.5,159.5C 439.153,166.521 440.32,173.521 443,180.5C 443.825,184.211 443.659,187.878 442.5,191.5C 437.399,197.108 431.899,202.108 426,206.5C 424.414,209.341 422.58,212.007 420.5,214.5C 412.774,222.23 404.774,229.563 396.5,236.5C 395.667,236.833 394.833,237.167 394,237.5C 388.174,236.626 382.341,235.793 376.5,235C 363.395,229.845 349.729,228.011 335.5,229.5C 333.252,229.998 331.252,230.998 329.5,232.5C 326.377,237.446 322.377,241.446 317.5,244.5C 314.894,248.609 311.727,252.276 308,255.5C 305.559,259.084 303.392,262.75 301.5,266.5C 300.5,266.5 299.5,266.5 298.5,266.5C 298.322,265.305 297.989,264.138 297.5,263C 299.548,260.811 300.881,258.311 301.5,255.5C 302.822,255.67 303.989,255.337 305,254.5C 312.599,244.064 320.766,234.064 329.5,224.5C 330.716,222.76 332.382,221.76 334.5,221.5C 344.097,223.642 353.764,225.142 363.5,226C 364.328,226.915 365.328,227.581 366.5,228C 375.772,230.321 385.105,231.988 394.5,233C 403.398,225.544 411.398,217.211 418.5,208C 419.5,207.667 420.5,207.333 421.5,207C 426.027,202.473 430.527,197.973 435,193.5C 435.167,191.833 435.333,190.167 435.5,188.5C 434.11,178.719 432.277,169.053 430,159.5C 428.018,156.39 426.518,153.057 425.5,149.5C 417.776,158.558 409.11,166.558 399.5,173.5C 398.643,174.736 397.977,176.069 397.5,177.5C 391.797,183.205 385.797,188.538 379.5,193.5C 377.618,192.469 375.618,191.635 373.5,191C 360.639,177.641 347.973,164.141 335.5,150.5C 337.622,148.549 339.122,146.215 340,143.5C 347.395,137.439 354.061,130.772 360,123.5C 367.704,116.962 374.871,109.962 381.5,102.5C 379.127,99.8758 376.294,99.2092 373,100.5C 370.541,99.25 368.041,98.0833 365.5,97C 356.717,96.4121 348.05,95.2454 339.5,93.5C 324.369,107.13 309.702,121.297 295.5,136C 299.167,137 299.5,138.667 296.5,141C 298.817,159.072 302.15,176.906 306.5,194.5C 305.675,195.386 304.675,195.719 303.5,195.5C 303.271,197.433 302.438,199.1 301,200.5C 298.667,201.833 296.333,203.167 294,204.5C 291.489,207.68 289.155,211.013 287,214.5C 286.439,213.978 285.772,213.645 285,213.5C 281.203,214.801 279.036,217.468 278.5,221.5C 277.167,222.833 275.833,222.833 274.5,221.5C 273.904,220.284 273.737,218.951 274,217.5C 269.437,221.06 264.604,224.227 259.5,227C 258.207,227.49 256.873,227.657 255.5,227.5C 254.833,227.167 254.167,226.833 253.5,226.5C 253.167,225.833 252.833,225.167 252.5,224.5C 254.094,224.92 255.594,225.586 257,226.5C 258.49,225.683 259.99,224.85 261.5,224C 271.868,214.392 282.368,204.892 293,195.5C 293.927,192.137 293.427,189.137 291.5,186.5C 287.444,168.122 283.111,149.789 278.5,131.5C 280.111,135.465 282.778,136.298 286.5,134C 292.105,128.64 297.605,123.14 303,117.5C 304.744,114.756 306.577,112.09 308.5,109.5C 316.681,101.754 324.848,94.0875 333,86.5C 334.301,86.0398 335.634,85.7065 337,85.5C 345.015,87.7526 353.182,88.7526 361.5,88.5 Z"/></g>
    <g><path style="opacity:1" fill="#b6b9b8" d="M 426.5,134.5 C 416.499,146.167 405.832,157.167 394.5,167.5C 390.448,176.719 383.448,180.553 373.5,179C 366.591,173.592 360.591,167.426 355.5,160.5C 356.15,157.996 357.817,156.663 360.5,156.5C 365.113,160.446 369.446,164.779 373.5,169.5C 372.733,171.558 372.733,173.391 373.5,175C 376.912,176.772 380.412,176.939 384,175.5C 398.312,162.022 412.478,148.356 426.5,134.5 Z"/></g>
    <g><path style="opacity:0.827" fill="#93776b" d="M 186.5,163.5 C 206.833,182.167 227.167,200.833 247.5,219.5C 248.183,221.176 249.517,221.843 251.5,221.5C 251.263,222.791 251.596,223.791 252.5,224.5C 252.833,225.167 253.167,225.833 253.5,226.5C 252.833,226.5 252.167,226.5 251.5,226.5C 231.143,208.806 211.143,190.806 191.5,172.5C 189.818,169.985 187.652,167.985 185,166.5C 182.348,168.32 179.848,170.32 177.5,172.5C 178.754,169.907 180.42,167.573 182.5,165.5C 183.605,164.4 184.938,163.733 186.5,163.5 Z"/></g>
    <g><path style="opacity:1" fill="#3c4449" d="M 93.5,244.5 C 91.8333,243.5 90.5,242.167 89.5,240.5C 89.9175,239.778 90.5842,239.278 91.5,239C 77.8552,224.85 63.8552,211.35 49.5,198.5C 53.852,192.82 58.5187,187.486 63.5,182.5C 66.4309,180.909 69.0976,178.909 71.5,176.5C 71.56,177.043 71.8933,177.376 72.5,177.5C 73.5237,176.147 74.857,175.48 76.5,175.5C 76.281,176.675 76.6143,177.675 77.5,178.5C 80.7268,179.909 84.0601,180.909 87.5,181.5C 87.3433,182.873 87.51,184.207 88,185.5C 88.3076,184.692 88.8076,184.025 89.5,183.5C 91.4837,186.379 93.9837,188.712 97,190.5C 97.4935,192.134 97.6602,193.801 97.5,195.5C 98.5,195.5 99.5,195.5 100.5,195.5C 100.343,196.873 100.51,198.207 101,199.5C 108.334,206.88 113.834,215.38 117.5,225C 114.329,228.196 111.329,231.529 108.5,235C 109.517,236.049 109.684,237.216 109,238.5C 107.429,240.923 105.263,242.256 102.5,242.5C 102.915,244.948 101.915,246.281 99.5,246.5C 97.5952,245.935 95.9285,244.935 94.5,243.5C 93.8933,243.624 93.56,243.957 93.5,244.5 Z"/></g>
    <g><path style="opacity:0.224" fill="#b7b5b1" d="M 78.5,165.5 C 73.8943,171.444 68.8943,177.11 63.5,182.5C 58.2395,186.255 53.4062,190.589 49,195.5C 48.2599,196.749 48.4265,197.749 49.5,198.5C 49.5,199.5 49.5,200.5 49.5,201.5C 46.2228,199.823 45.7228,197.49 48,194.5C 58.3912,184.939 68.5579,175.272 78.5,165.5 Z"/></g>
    <g><path style="opacity:0.745" fill="#7c7a78" d="M 63.5,182.5 C 58.5187,187.486 53.852,192.82 49.5,198.5C 48.4265,197.749 48.2599,196.749 49,195.5C 53.4062,190.589 58.2395,186.255 63.5,182.5 Z"/></g>
    <g><path style="opacity:1" fill="#534440" d="M 171.5,177.5 C 170.752,179.332 169.752,180.999 168.5,182.5C 167.5,182.833 166.833,183.5 166.5,184.5C 165.5,184.833 164.833,185.5 164.5,186.5C 162.05,187.711 160.05,189.378 158.5,191.5C 154.817,195.18 150.817,198.514 146.5,201.5C 146.281,200.325 146.614,199.325 147.5,198.5C 151.108,195.551 154.775,192.884 158.5,190.5C 158.5,189.5 158.5,188.5 158.5,187.5C 159.552,187.649 160.552,187.483 161.5,187C 164.749,183.58 168.083,180.413 171.5,177.5 Z"/></g>
    <g><path style="opacity:1" fill="#bc664e" d="M 298.5,295.5 C 301.385,295.194 304.052,295.527 306.5,296.5C 300.167,296.5 293.833,296.5 287.5,296.5C 286.833,296.5 286.167,296.5 285.5,296.5C 283.708,295.691 281.708,295.191 279.5,295C 280.337,293.989 280.67,292.822 280.5,291.5C 278.712,291.785 277.045,291.452 275.5,290.5C 276.025,289.808 276.692,289.308 277.5,289C 273.62,285.612 269.62,282.446 265.5,279.5C 258.954,269.973 251.121,261.639 242,254.5C 239.667,251.5 237.333,248.5 235,245.5C 222.752,233.924 210.419,222.257 198,210.5C 197.667,209.5 197.333,208.5 197,207.5C 188.452,198.961 181.619,189.295 176.5,178.5C 175.749,179.376 175.249,180.376 175,181.5C 174.586,181.043 174.086,180.709 173.5,180.5C 171.925,181.456 170.258,182.123 168.5,182.5C 169.752,180.999 170.752,179.332 171.5,177.5C 172.945,175.937 174.611,174.604 176.5,173.5C 179.5,172.167 182.5,170.833 185.5,169.5C 185.643,171.262 185.309,172.929 184.5,174.5C 189.047,183.372 194.381,191.705 200.5,199.5C 201.429,200.689 201.762,202.022 201.5,203.5C 202.552,203.351 203.552,203.517 204.5,204C 205.664,206.248 206.997,208.414 208.5,210.5C 213.196,213.696 217.03,217.696 220,222.5C 221.753,223.627 223.587,224.627 225.5,225.5C 229.197,229.695 232.697,234.028 236,238.5C 237.713,239.976 239.547,241.31 241.5,242.5C 256.393,256.891 270.726,271.725 284.5,287C 285.448,287.483 286.448,287.649 287.5,287.5C 287.548,290.635 289.215,292.302 292.5,292.5C 292.291,293.086 291.957,293.586 291.5,294C 293.677,295.202 296.011,295.702 298.5,295.5 Z"/></g>
    <g><path style="opacity:0.627" fill="#716f6c" d="M 49.5,198.5 C 63.8552,211.35 77.8552,224.85 91.5,239C 90.5842,239.278 89.9175,239.778 89.5,240.5C 76.14,227.473 62.8066,214.473 49.5,201.5C 49.5,200.5 49.5,199.5 49.5,198.5 Z"/></g>
    <g><path style="opacity:1" fill="#e7e8e6" d="M 291.5,186.5 C 293.427,189.137 293.927,192.137 293,195.5C 282.368,204.892 271.868,214.392 261.5,224C 259.99,224.85 258.49,225.683 257,226.5C 255.594,225.586 254.094,224.92 252.5,224.5C 252.369,223.761 252.536,223.094 253,222.5C 264.514,211.988 276.347,201.822 288.5,192C 290.607,190.736 291.607,188.903 291.5,186.5 Z"/></g>
    <g><path style="opacity:1" fill="#7e4e3f" d="M 158.5,191.5 C 156.237,195.103 153.57,198.436 150.5,201.5C 157.654,210.619 165.487,218.952 174,226.5C 175.546,230.38 177.88,233.714 181,236.5C 181.692,237.437 181.525,238.103 180.5,238.5C 172.771,230.051 165.271,221.385 158,212.5C 154.571,208.561 150.737,205.228 146.5,202.5C 146.5,202.167 146.5,201.833 146.5,201.5C 150.817,198.514 154.817,195.18 158.5,191.5 Z"/></g>
    <g><path style="opacity:1" fill="#92928f" d="M 446.5,205.5 C 446.511,203.983 447.177,202.816 448.5,202C 447.451,201.508 446.451,201.674 445.5,202.5C 430.266,217.902 414.932,233.068 399.5,248C 396.833,248.667 394.167,248.667 391.5,248C 385.259,247.158 379.259,245.491 373.5,243C 360.872,240.411 348.205,238.244 335.5,236.5C 334.833,238.833 334.167,241.167 333.5,243.5C 332.974,245.23 331.974,246.564 330.5,247.5C 329.761,247.369 329.094,247.536 328.5,248C 322.538,254.781 316.705,261.614 311,268.5C 309.549,270.464 307.716,271.797 305.5,272.5C 303.142,270.471 300.808,268.471 298.5,266.5C 299.5,266.5 300.5,266.5 301.5,266.5C 302.15,266.804 302.817,267.137 303.5,267.5C 307.324,264.509 310.991,261.342 314.5,258C 314.167,257.667 313.833,257.333 313.5,257C 315.081,256.293 316.581,255.46 318,254.5C 320.523,250.319 323.023,246.152 325.5,242C 329.238,239.803 332.571,237.136 335.5,234C 337.789,232.752 340.123,231.585 342.5,230.5C 346.779,231.274 351.113,231.774 355.5,232C 358.214,233.794 361.214,234.96 364.5,235.5C 372.841,236.935 381.174,238.435 389.5,240C 385.586,240.897 385.752,241.397 390,241.5C 393.071,241.216 395.905,240.216 398.5,238.5C 401.635,235.099 405.302,232.433 409.5,230.5C 411.69,228.993 413.024,226.993 413.5,224.5C 414.552,224.649 415.552,224.483 416.5,224C 418.293,221.205 420.46,218.705 423,216.5C 423.333,216.833 423.667,217.167 424,217.5C 425.276,214.72 426.776,212.053 428.5,209.5C 432.288,208.306 435.121,205.306 437,200.5C 440.131,199.018 442.965,197.185 445.5,195C 446.191,193.933 446.691,192.766 447,191.5C 448.017,193.376 448.851,195.376 449.5,197.5C 449.515,189.1 448.348,180.767 446,172.5C 445.667,173.167 445.333,173.833 445,174.5C 444.214,168.96 442.381,163.96 439.5,159.5C 437.832,153.847 435.999,148.181 434,142.5C 433.333,139.167 433.333,135.833 434,132.5C 435.598,130.105 435.764,127.772 434.5,125.5C 433.438,123.243 431.772,122.077 429.5,122C 421.938,129.73 414.272,137.23 406.5,144.5C 406.631,143.761 406.464,143.094 406,142.5C 399.577,149.428 392.744,155.762 385.5,161.5C 399.298,147.201 413.298,133.035 427.5,119C 429.167,118.333 430.833,118.333 432.5,119C 436.119,121.944 438.953,125.444 441,129.5C 446.631,152.319 450.964,175.319 454,198.5C 451.63,201.039 449.13,203.372 446.5,205.5 Z"/></g>
    <g><path style="opacity:1" fill="#a54d35" d="M 166.5,184.5 C 166.586,185.496 166.252,186.329 165.5,187C 166,187.167 166.5,187.333 167,187.5C 168.445,186.258 169.945,185.425 171.5,185C 177.213,193.719 184.046,201.553 192,208.5C 192.667,209.833 193.333,211.167 194,212.5C 213.305,230.805 232.305,249.471 251,268.5C 254.551,275.221 259.384,280.887 265.5,285.5C 267.238,288.874 268.904,292.207 270.5,295.5C 272.415,295.216 274.081,295.549 275.5,296.5C 273.833,296.5 272.167,296.5 270.5,296.5C 268.833,296.5 267.167,296.5 265.5,296.5C 269.729,293.954 269.396,292.287 264.5,291.5C 259.876,284.357 254.21,277.857 247.5,272C 245.754,271.529 244.087,270.862 242.5,270C 236.279,263.956 230.113,257.789 224,251.5C 223.667,250.167 223.333,248.833 223,247.5C 206.597,231.686 190.43,215.519 174.5,199C 168.769,196.202 165.436,192.035 164.5,186.5C 164.833,185.5 165.5,184.833 166.5,184.5 Z"/></g>
    <g><path style="opacity:1" fill="#979a9a" d="M 439.5,159.5 C 442.381,163.96 444.214,168.96 445,174.5C 445.333,173.833 445.667,173.167 446,172.5C 448.348,180.767 449.515,189.1 449.5,197.5C 448.851,195.376 448.017,193.376 447,191.5C 446.691,192.766 446.191,193.933 445.5,195C 442.965,197.185 440.131,199.018 437,200.5C 435.121,205.306 432.288,208.306 428.5,209.5C 426.776,212.053 425.276,214.72 424,217.5C 423.667,217.167 423.333,216.833 423,216.5C 420.46,218.705 418.293,221.205 416.5,224C 415.552,224.483 414.552,224.649 413.5,224.5C 413.024,226.993 411.69,228.993 409.5,230.5C 405.302,232.433 401.635,235.099 398.5,238.5C 395.905,240.216 393.071,241.216 390,241.5C 385.752,241.397 385.586,240.897 389.5,240C 381.174,238.435 372.841,236.935 364.5,235.5C 361.214,234.96 358.214,233.794 355.5,232C 351.113,231.774 346.779,231.274 342.5,230.5C 340.123,231.585 337.789,232.752 335.5,234C 332.571,237.136 329.238,239.803 325.5,242C 323.023,246.152 320.523,250.319 318,254.5C 316.581,255.46 315.081,256.293 313.5,257C 313.833,257.333 314.167,257.667 314.5,258C 310.991,261.342 307.324,264.509 303.5,267.5C 302.817,267.137 302.15,266.804 301.5,266.5C 303.392,262.75 305.559,259.084 308,255.5C 311.727,252.276 314.894,248.609 317.5,244.5C 322.377,241.446 326.377,237.446 329.5,232.5C 331.252,230.998 333.252,229.998 335.5,229.5C 349.729,228.011 363.395,229.845 376.5,235C 382.341,235.793 388.174,236.626 394,237.5C 394.833,237.167 395.667,236.833 396.5,236.5C 404.774,229.563 412.774,222.23 420.5,214.5C 422.58,212.007 424.414,209.341 426,206.5C 431.899,202.108 437.399,197.108 442.5,191.5C 443.659,187.878 443.825,184.211 443,180.5C 440.32,173.521 439.153,166.521 439.5,159.5 Z"/></g>
    <g><path style="opacity:0.359" fill="#75736f" d="M 446.5,205.5 C 430.705,219.794 415.372,234.627 400.5,250C 395.81,250.332 391.143,249.998 386.5,249C 371.24,245.185 355.907,241.685 340.5,238.5C 337.895,239.769 335.562,241.436 333.5,243.5C 334.167,241.167 334.833,238.833 335.5,236.5C 348.205,238.244 360.872,240.411 373.5,243C 379.259,245.491 385.259,247.158 391.5,248C 394.167,248.667 396.833,248.667 399.5,248C 414.932,233.068 430.266,217.902 445.5,202.5C 446.451,201.674 447.451,201.508 448.5,202C 447.177,202.816 446.511,203.983 446.5,205.5 Z"/></g>
    <g><path style="opacity:1" fill="#8b402d" d="M 164.5,186.5 C 165.436,192.035 168.769,196.202 174.5,199C 190.43,215.519 206.597,231.686 223,247.5C 223.333,248.833 223.667,250.167 224,251.5C 230.113,257.789 236.279,263.956 242.5,270C 244.087,270.862 245.754,271.529 247.5,272C 254.21,277.857 259.876,284.357 264.5,291.5C 269.396,292.287 269.729,293.954 265.5,296.5C 255.833,296.5 246.167,296.5 236.5,296.5C 236.343,297.873 236.51,299.207 237,300.5C 239.782,302.771 241.949,305.437 243.5,308.5C 231.839,294.84 219.839,281.507 207.5,268.5C 206.833,267.167 205.833,266.167 204.5,265.5C 204.5,264.167 203.833,263.5 202.5,263.5C 201.25,261.068 199.75,258.734 198,256.5C 191.964,250.631 186.13,244.631 180.5,238.5C 181.525,238.103 181.692,237.437 181,236.5C 177.88,233.714 175.546,230.38 174,226.5C 165.487,218.952 157.654,210.619 150.5,201.5C 153.57,198.436 156.237,195.103 158.5,191.5C 160.05,189.378 162.05,187.711 164.5,186.5 Z"/></g>
    <g><path style="opacity:1" fill="#945e4c" d="M 251.5,226.5 C 252.167,226.5 252.833,226.5 253.5,226.5C 254.167,226.833 254.833,227.167 255.5,227.5C 269.603,240.724 283.936,253.724 298.5,266.5C 300.808,268.471 303.142,270.471 305.5,272.5C 306.779,275.112 308.445,277.445 310.5,279.5C 290.853,261.856 271.187,244.189 251.5,226.5 Z"/></g>
    <g><path style="opacity:1" fill="#c2745e" d="M 191.5,172.5 C 194.829,177.446 198.162,182.446 201.5,187.5C 200.167,188.62 199.667,189.953 200,191.5C 202.643,192.976 204.81,194.976 206.5,197.5C 207.451,196.674 208.451,196.508 209.5,197C 210.958,199.46 212.791,201.627 215,203.5C 215.964,208.33 218.464,212.33 222.5,215.5C 223.298,217.078 223.798,218.744 224,220.5C 231.105,224.936 237.938,229.77 244.5,235C 245.147,236.609 245.98,238.109 247,239.5C 247.718,238.549 248.551,238.383 249.5,239C 248.289,240.113 248.289,241.28 249.5,242.5C 256.554,248.711 263.221,255.377 269.5,262.5C 272.362,264.523 275.362,266.356 278.5,268C 279.337,269.011 279.67,270.178 279.5,271.5C 282.952,274.399 286.618,277.066 290.5,279.5C 290.5,280.5 290.5,281.5 290.5,282.5C 294.701,282.426 296.035,284.259 294.5,288C 296.167,289.333 297.833,290.667 299.5,292C 298.377,293.044 297.044,293.71 295.5,294C 296.737,294.232 297.737,294.732 298.5,295.5C 296.011,295.702 293.677,295.202 291.5,294C 291.957,293.586 292.291,293.086 292.5,292.5C 289.215,292.302 287.548,290.635 287.5,287.5C 286.448,287.649 285.448,287.483 284.5,287C 270.726,271.725 256.393,256.891 241.5,242.5C 239.547,241.31 237.713,239.976 236,238.5C 232.697,234.028 229.197,229.695 225.5,225.5C 223.587,224.627 221.753,223.627 220,222.5C 217.03,217.696 213.196,213.696 208.5,210.5C 206.997,208.414 205.664,206.248 204.5,204C 203.552,203.517 202.552,203.351 201.5,203.5C 201.762,202.022 201.429,200.689 200.5,199.5C 194.381,191.705 189.047,183.372 184.5,174.5C 185.309,172.929 185.643,171.262 185.5,169.5C 182.5,170.833 179.5,172.167 176.5,173.5C 176.5,172.833 176.833,172.5 177.5,172.5C 179.848,170.32 182.348,168.32 185,166.5C 187.652,167.985 189.818,169.985 191.5,172.5 Z"/></g>
    <g><path style="opacity:1" fill="#b3563c" d="M 285.5,296.5 C 282.167,296.5 278.833,296.5 275.5,296.5C 274.081,295.549 272.415,295.216 270.5,295.5C 268.904,292.207 267.238,288.874 265.5,285.5C 259.384,280.887 254.551,275.221 251,268.5C 232.305,249.471 213.305,230.805 194,212.5C 193.333,211.167 192.667,209.833 192,208.5C 184.046,201.553 177.213,193.719 171.5,185C 169.945,185.425 168.445,186.258 167,187.5C 166.5,187.333 166,187.167 165.5,187C 166.252,186.329 166.586,185.496 166.5,184.5C 166.833,183.5 167.5,182.833 168.5,182.5C 170.258,182.123 171.925,181.456 173.5,180.5C 174.086,180.709 174.586,181.043 175,181.5C 175.249,180.376 175.749,179.376 176.5,178.5C 181.619,189.295 188.452,198.961 197,207.5C 197.333,208.5 197.667,209.5 198,210.5C 210.419,222.257 222.752,233.924 235,245.5C 237.333,248.5 239.667,251.5 242,254.5C 251.121,261.639 258.954,269.973 265.5,279.5C 269.62,282.446 273.62,285.612 277.5,289C 276.692,289.308 276.025,289.808 275.5,290.5C 277.045,291.452 278.712,291.785 280.5,291.5C 280.67,292.822 280.337,293.989 279.5,295C 281.708,295.191 283.708,295.691 285.5,296.5 Z"/></g>
    <g><path style="opacity:1" fill="#9b9b98" d="M 207.5,268.5 C 219.839,281.507 231.839,294.84 243.5,308.5C 245.427,311.767 247.761,314.767 250.5,317.5C 244.939,324.576 239.105,331.576 233,338.5C 231.667,339.167 230.333,339.833 229,340.5C 223.808,349.871 216.975,357.871 208.5,364.5C 201.431,374.684 193.431,384.017 184.5,392.5C 181.859,397.969 178.026,402.303 173,405.5C 171.779,409.169 169.446,411.836 166,413.5C 164.441,415.217 163.608,417.217 163.5,419.5C 152.792,417.451 143.125,413.117 134.5,406.5C 126.747,399.413 120.081,391.413 114.5,382.5C 113.442,379.22 111.942,376.22 110,373.5C 105.598,365.362 108.098,360.695 117.5,359.5C 118.578,356.592 120.245,354.092 122.5,352C 124.776,352.574 127.109,352.408 129.5,351.5C 129.656,348.159 130.989,345.326 133.5,343C 137.625,343.898 139.791,342.064 140,337.5C 142.104,335.262 144.438,334.262 147,334.5C 149.18,332.137 150.847,329.47 152,326.5C 153.555,324.854 155.221,324.521 157,325.5C 159.507,323.811 161.007,321.478 161.5,318.5C 163.483,317.018 165.316,315.351 167,313.5C 167.423,314.956 168.256,315.456 169.5,315C 171.708,313.164 173.042,310.831 173.5,308C 175.207,307.805 176.874,307.805 178.5,308C 181.666,305.198 184.499,302.031 187,298.5C 187.725,299.059 188.558,299.392 189.5,299.5C 195.658,297.014 199.658,292.681 201.5,286.5C 202.833,286.5 204.167,286.5 205.5,286.5C 205.585,284.071 206.585,282.071 208.5,280.5C 210.409,281.348 212.409,281.682 214.5,281.5C 214.981,277.651 213.314,275.651 209.5,275.5C 209.719,276.675 209.386,277.675 208.5,278.5C 207.385,276.511 207.718,274.678 209.5,273C 209.361,271.699 208.695,270.866 207.5,270.5C 207.5,269.833 207.5,269.167 207.5,268.5 Z M 161.5,387.5 C 154.418,395.57 146.418,396.903 137.5,391.5C 128.559,381.111 130.226,372.611 142.5,366C 158.849,364.186 165.182,371.353 161.5,387.5 Z"/></g>
    <g><path style="opacity:0.702" fill="#8a766e" d="M 330.5,247.5 C 323.947,257.061 316.614,266.061 308.5,274.5C 326.821,290.821 344.821,307.488 362.5,324.5C 351.569,316.571 341.236,307.905 331.5,298.5C 324.254,292.595 317.254,286.262 310.5,279.5C 308.445,277.445 306.779,275.112 305.5,272.5C 307.716,271.797 309.549,270.464 311,268.5C 316.705,261.614 322.538,254.781 328.5,248C 329.094,247.536 329.761,247.369 330.5,247.5 Z"/></g>
    <g><path style="opacity:1" fill="#c87d69" d="M 191.5,172.5 C 211.143,190.806 231.143,208.806 251.5,226.5C 271.187,244.189 290.853,261.856 310.5,279.5C 317.254,286.262 324.254,292.595 331.5,298.5C 330.244,298.539 329.244,298.039 328.5,297C 321.174,296.5 313.841,296.334 306.5,296.5C 304.052,295.527 301.385,295.194 298.5,295.5C 297.737,294.732 296.737,294.232 295.5,294C 297.044,293.71 298.377,293.044 299.5,292C 297.833,290.667 296.167,289.333 294.5,288C 296.035,284.259 294.701,282.426 290.5,282.5C 290.5,281.5 290.5,280.5 290.5,279.5C 286.618,277.066 282.952,274.399 279.5,271.5C 279.67,270.178 279.337,269.011 278.5,268C 275.362,266.356 272.362,264.523 269.5,262.5C 263.221,255.377 256.554,248.711 249.5,242.5C 248.289,241.28 248.289,240.113 249.5,239C 248.551,238.383 247.718,238.549 247,239.5C 245.98,238.109 245.147,236.609 244.5,235C 237.938,229.77 231.105,224.936 224,220.5C 223.798,218.744 223.298,217.078 222.5,215.5C 218.464,212.33 215.964,208.33 215,203.5C 212.791,201.627 210.958,199.46 209.5,197C 208.451,196.508 207.451,196.674 206.5,197.5C 204.81,194.976 202.643,192.976 200,191.5C 199.667,189.953 200.167,188.62 201.5,187.5C 198.162,182.446 194.829,177.446 191.5,172.5 Z"/></g>
    <g><path style="opacity:1" fill="#7f030a" d="M 265.5,296.5 C 267.167,296.5 268.833,296.5 270.5,296.5C 270.774,299.645 272.441,301.645 275.5,302.5C 276.584,303.665 277.417,304.998 278,306.5C 291.362,320.196 305.029,333.529 319,346.5C 334.279,363.113 350.279,379.113 367,394.5C 374.049,402.648 380.549,410.648 386.5,418.5C 388.071,419.309 389.738,419.643 391.5,419.5C 389.5,422.167 387.167,424.5 384.5,426.5C 382.139,426.674 379.806,427.007 377.5,427.5C 377.773,429.451 377.107,430.951 375.5,432C 369.052,432.768 362.719,432.268 356.5,430.5C 338.124,411.792 320.457,392.458 303.5,372.5C 301.241,369.062 298.741,365.729 296,362.5C 293.894,359.882 291.394,357.882 288.5,356.5C 287.512,355.205 286.512,353.872 285.5,352.5C 283.612,349.101 281.112,346.101 278,343.5C 277.178,341.212 276.511,338.878 276,336.5C 274.575,335.788 273.075,335.621 271.5,336C 270.128,334.758 269.128,333.258 268.5,331.5C 267.675,330.614 266.675,330.281 265.5,330.5C 264.395,329.4 263.062,328.733 261.5,328.5C 256.427,321.037 250.427,314.371 243.5,308.5C 241.949,305.437 239.782,302.771 237,300.5C 236.51,299.207 236.343,297.873 236.5,296.5C 246.167,296.5 255.833,296.5 265.5,296.5 Z"/></g>
    <g><path style="opacity:0.824" fill="#93908c" d="M 202.5,263.5 C 203.833,263.5 204.5,264.167 204.5,265.5C 203.078,265.709 201.745,266.209 200.5,267C 165.411,297.766 130.078,328.099 94.5,358C 92.9632,359.11 92.2965,360.61 92.5,362.5C 92.5,363.167 92.5,363.833 92.5,364.5C 91.71,363.391 91.21,362.058 91,360.5C 90.8333,361.833 90.6667,363.167 90.5,364.5C 92.0501,369.477 93.3834,374.477 94.5,379.5C 90.336,373.164 88.5026,366.164 89,358.5C 117.756,335.082 145.922,310.915 173.5,286C 183.042,278.285 192.709,270.785 202.5,263.5 Z"/></g>
    <g><path style="opacity:1" fill="#bc4048" d="M 287.5,297.5 C 287.5,297.167 287.5,296.833 287.5,296.5C 293.833,296.5 300.167,296.5 306.5,296.5C 313.841,296.334 321.174,296.5 328.5,297C 329.244,298.039 330.244,298.539 331.5,298.5C 341.236,307.905 351.569,316.571 362.5,324.5C 363.956,330.957 367.956,334.623 374.5,335.5C 375.167,335.5 375.5,335.833 375.5,336.5C 375.351,337.552 375.517,338.552 376,339.5C 379.833,342 383,345.167 385.5,349C 389.443,350.61 392.443,353.277 394.5,357C 398.402,359.751 402.402,362.251 406.5,364.5C 406.776,367.719 408.109,370.385 410.5,372.5C 406.608,371.711 404.275,369.378 403.5,365.5C 401.549,365.227 400.049,365.893 399,367.5C 397.743,365.254 395.91,363.921 393.5,363.5C 393.5,362.5 393.5,361.5 393.5,360.5C 391.425,360.302 389.425,360.135 387.5,360C 389.556,363.057 392.222,365.391 395.5,367C 393.098,367.814 390.765,367.647 388.5,366.5C 386.999,365.248 385.332,364.248 383.5,363.5C 380.958,360.617 378.458,357.617 376,354.5C 375.333,353.167 375.333,351.833 376,350.5C 377.049,351.517 378.216,351.684 379.5,351C 377.833,348.845 376.833,346.345 376.5,343.5C 372.904,343.144 370.07,341.144 368,337.5C 367.333,338.167 366.667,338.833 366,339.5C 364.252,337.865 363.085,335.865 362.5,333.5C 360.851,332.352 359.351,331.019 358,329.5C 357.544,328.256 358.044,327.423 359.5,327C 357.109,326.713 354.776,326.213 352.5,325.5C 352.167,325.833 351.833,326.167 351.5,326.5C 353.544,329.371 355.877,332.038 358.5,334.5C 356.305,335.769 354.139,335.769 352,334.5C 353.331,330.652 351.831,328.985 347.5,329.5C 348.101,325.71 347.101,322.544 344.5,320C 346.167,313.878 344,309.711 338,307.5C 336.915,308.293 335.748,308.96 334.5,309.5C 331.033,308.002 327.366,307.002 323.5,306.5C 322.167,305.167 320.833,303.833 319.5,302.5C 322.068,301.132 324.401,301.466 326.5,303.5C 327.833,302.5 329.167,301.5 330.5,300.5C 330.167,300.167 329.833,299.833 329.5,299.5C 317.556,298.31 305.556,297.643 293.5,297.5C 291.5,297.5 289.5,297.5 287.5,297.5 Z"/></g>
    <g><path style="opacity:0.863" fill="#9c6563" d="M 362.5,324.5 C 366.526,328.195 370.526,331.862 374.5,335.5C 367.956,334.623 363.956,330.957 362.5,324.5 Z"/></g>
    <g><path style="opacity:1" fill="#7e2b28" d="M 265.5,330.5 C 266.675,330.281 267.675,330.614 268.5,331.5C 269.128,333.258 270.128,334.758 271.5,336C 273.075,335.621 274.575,335.788 276,336.5C 276.511,338.878 277.178,341.212 278,343.5C 281.112,346.101 283.612,349.101 285.5,352.5C 278.368,345.554 271.702,338.221 265.5,330.5 Z"/></g>
    <g><path style="opacity:1" fill="#92010a" d="M 270.5,296.5 C 272.167,296.5 273.833,296.5 275.5,296.5C 278.833,296.5 282.167,296.5 285.5,296.5C 286.167,296.5 286.833,296.5 287.5,296.5C 287.5,296.833 287.5,297.167 287.5,297.5C 284.482,297.335 281.482,297.502 278.5,298C 312.107,332.773 346.107,366.94 380.5,400.5C 382.833,401.833 385.167,403.167 387.5,404.5C 386.754,405.736 386.421,407.07 386.5,408.5C 388.5,408.5 390.5,408.5 392.5,408.5C 392.088,410.973 393.088,412.306 395.5,412.5C 394.167,414.833 392.833,417.167 391.5,419.5C 389.738,419.643 388.071,419.309 386.5,418.5C 380.549,410.648 374.049,402.648 367,394.5C 350.279,379.113 334.279,363.113 319,346.5C 305.029,333.529 291.362,320.196 278,306.5C 277.417,304.998 276.584,303.665 275.5,302.5C 272.441,301.645 270.774,299.645 270.5,296.5 Z"/></g>
    <g><path style="opacity:1" fill="#e7e8e6" d="M 204.5,265.5 C 205.833,266.167 206.833,267.167 207.5,268.5C 207.5,269.167 207.5,269.833 207.5,270.5C 183.716,290.773 159.716,310.939 135.5,331C 134.194,333.573 132.527,335.906 130.5,338C 119.897,345.148 109.897,353.148 100.5,362C 97.854,362.497 95.1873,362.664 92.5,362.5C 92.2965,360.61 92.9632,359.11 94.5,358C 130.078,328.099 165.411,297.766 200.5,267C 201.745,266.209 203.078,265.709 204.5,265.5 Z"/></g>
    <g><path style="opacity:0.804" fill="#956764" d="M 375.5,336.5 C 386.063,345.609 396.397,354.942 406.5,364.5C 402.402,362.251 398.402,359.751 394.5,357C 392.443,353.277 389.443,350.61 385.5,349C 383,345.167 379.833,342 376,339.5C 375.517,338.552 375.351,337.552 375.5,336.5 Z"/></g>
    <g><path style="opacity:1" fill="#a70410" d="M 287.5,297.5 C 287.5,298.833 287.5,300.167 287.5,301.5C 289.901,302.049 292.235,302.882 294.5,304C 295.92,307.251 297.92,310.085 300.5,312.5C 304.139,313.319 307.139,315.153 309.5,318C 316.302,325.803 323.469,333.303 331,340.5C 331.483,341.448 331.649,342.448 331.5,343.5C 333.308,343.491 334.975,343.991 336.5,345C 355.297,365.386 374.964,384.053 395.5,401C 397.473,401.495 399.473,401.662 401.5,401.5C 401.5,400.5 401.5,399.5 401.5,398.5C 404.95,397.756 406.616,399.09 406.5,402.5C 405.167,402.5 403.833,402.5 402.5,402.5C 402.5,404.167 402.5,405.833 402.5,407.5C 400.194,408.375 399.527,409.708 400.5,411.5C 400.167,412.5 399.5,413.167 398.5,413.5C 397.779,411.618 396.779,411.285 395.5,412.5C 393.088,412.306 392.088,410.973 392.5,408.5C 390.5,408.5 388.5,408.5 386.5,408.5C 386.421,407.07 386.754,405.736 387.5,404.5C 385.167,403.167 382.833,401.833 380.5,400.5C 346.107,366.94 312.107,332.773 278.5,298C 281.482,297.502 284.482,297.335 287.5,297.5 Z"/></g>
    <g><path style="opacity:0.243" fill="#72706d" d="M 249.5,341.5 C 239.336,355.476 228.003,368.476 215.5,380.5C 225.902,367.584 236.569,354.751 247.5,342C 248.094,341.536 248.761,341.369 249.5,341.5 Z"/></g>
    <g><path style="opacity:1" fill="#be3841" d="M 293.5,297.5 C 305.556,297.643 317.556,298.31 329.5,299.5C 329.833,299.833 330.167,300.167 330.5,300.5C 329.167,301.5 327.833,302.5 326.5,303.5C 324.401,301.466 322.068,301.132 319.5,302.5C 320.833,303.833 322.167,305.167 323.5,306.5C 327.366,307.002 331.033,308.002 334.5,309.5C 335.748,308.96 336.915,308.293 338,307.5C 344,309.711 346.167,313.878 344.5,320C 347.101,322.544 348.101,325.71 347.5,329.5C 351.831,328.985 353.331,330.652 352,334.5C 354.139,335.769 356.305,335.769 358.5,334.5C 355.877,332.038 353.544,329.371 351.5,326.5C 351.833,326.167 352.167,325.833 352.5,325.5C 354.776,326.213 357.109,326.713 359.5,327C 358.044,327.423 357.544,328.256 358,329.5C 359.351,331.019 360.851,332.352 362.5,333.5C 363.085,335.865 364.252,337.865 366,339.5C 366.667,338.833 367.333,338.167 368,337.5C 370.07,341.144 372.904,343.144 376.5,343.5C 376.833,346.345 377.833,348.845 379.5,351C 378.216,351.684 377.049,351.517 376,350.5C 375.333,351.833 375.333,353.167 376,354.5C 378.458,357.617 380.958,360.617 383.5,363.5C 385.332,364.248 386.999,365.248 388.5,366.5C 390.765,367.647 393.098,367.814 395.5,367C 392.222,365.391 389.556,363.057 387.5,360C 389.425,360.135 391.425,360.302 393.5,360.5C 393.5,361.5 393.5,362.5 393.5,363.5C 395.91,363.921 397.743,365.254 399,367.5C 400.049,365.893 401.549,365.227 403.5,365.5C 404.275,369.378 406.608,371.711 410.5,372.5C 412.167,373.5 413.5,374.833 414.5,376.5C 412.956,376.297 411.622,375.63 410.5,374.5C 408.908,374.417 407.241,374.751 405.5,375.5C 404.328,375.081 403.328,374.415 402.5,373.5C 400.167,374.833 397.833,376.167 395.5,377.5C 392.676,374.887 389.342,373.221 385.5,372.5C 383.135,369.65 380.135,367.816 376.5,367C 377.308,366.692 377.975,366.192 378.5,365.5C 376.13,363.214 373.464,361.38 370.5,360C 370.833,359.667 371.167,359.333 371.5,359C 369.343,357.019 367.676,354.686 366.5,352C 365.167,351.667 363.833,351.333 362.5,351C 360.5,348.667 358.5,346.333 356.5,344C 355.552,343.517 354.552,343.351 353.5,343.5C 353.649,342.448 353.483,341.448 353,340.5C 345.648,336.561 340.815,330.727 338.5,323C 336.892,322.342 335.725,322.842 335,324.5C 334.065,321.898 332.232,320.398 329.5,320C 330.257,318.488 331.257,317.154 332.5,316C 328.28,317.224 325.28,315.724 323.5,311.5C 319.553,309.22 315.887,306.553 312.5,303.5C 311.571,302.311 311.238,300.978 311.5,299.5C 308.873,298.908 306.206,298.575 303.5,298.5C 299.958,298.813 296.625,298.479 293.5,297.5 Z"/></g>
    <g><path style="opacity:0.306" fill="#874141" d="M 288.5,356.5 C 291.394,357.882 293.894,359.882 296,362.5C 298.741,365.729 301.241,369.062 303.5,372.5C 297.795,367.796 292.795,362.463 288.5,356.5 Z"/></g>
    <g><path style="opacity:1" fill="#ba2e38" d="M 303.5,298.5 C 306.206,298.575 308.873,298.908 311.5,299.5C 311.238,300.978 311.571,302.311 312.5,303.5C 315.887,306.553 319.553,309.22 323.5,311.5C 325.28,315.724 328.28,317.224 332.5,316C 331.257,317.154 330.257,318.488 329.5,320C 332.232,320.398 334.065,321.898 335,324.5C 335.725,322.842 336.892,322.342 338.5,323C 340.815,330.727 345.648,336.561 353,340.5C 353.483,341.448 353.649,342.448 353.5,343.5C 354.552,343.351 355.552,343.517 356.5,344C 358.5,346.333 360.5,348.667 362.5,351C 363.833,351.333 365.167,351.667 366.5,352C 367.676,354.686 369.343,357.019 371.5,359C 371.167,359.333 370.833,359.667 370.5,360C 373.464,361.38 376.13,363.214 378.5,365.5C 377.975,366.192 377.308,366.692 376.5,367C 380.135,367.816 383.135,369.65 385.5,372.5C 389.342,373.221 392.676,374.887 395.5,377.5C 397.833,376.167 400.167,374.833 402.5,373.5C 403.328,374.415 404.328,375.081 405.5,375.5C 407.241,374.751 408.908,374.417 410.5,374.5C 411.622,375.63 412.956,376.297 414.5,376.5C 416.044,378.847 416.711,381.514 416.5,384.5C 416.657,387.814 415.991,390.814 414.5,393.5C 414.5,390.833 414.5,388.167 414.5,385.5C 410.154,385.666 405.821,385.499 401.5,385C 400.285,382.904 399.451,383.071 399,385.5C 398.5,385 398,384.5 397.5,384C 394.5,383.667 391.5,383.333 388.5,383C 383.054,379.229 377.388,375.729 371.5,372.5C 365.202,364.368 358.035,357.035 350,350.5C 349.64,348.392 348.973,346.392 348,344.5C 337.354,333.856 326.354,323.523 315,313.5C 311.914,310.245 309.414,306.578 307.5,302.5C 306.624,301.749 305.624,301.249 304.5,301C 305.167,300.667 305.833,300.333 306.5,300C 305.263,299.768 304.263,299.268 303.5,298.5 Z"/></g>
    <g><path style="opacity:0.878" fill="#975755" d="M 406.5,364.5 C 419.694,373.561 422.028,384.894 413.5,398.5C 412.957,398.44 412.624,398.107 412.5,397.5C 413.18,396.14 413.847,394.807 414.5,393.5C 415.991,390.814 416.657,387.814 416.5,384.5C 416.711,381.514 416.044,378.847 414.5,376.5C 413.5,374.833 412.167,373.5 410.5,372.5C 408.109,370.385 406.776,367.719 406.5,364.5 Z"/></g>
    <g><path style="opacity:1" fill="#b31d27" d="M 287.5,297.5 C 289.5,297.5 291.5,297.5 293.5,297.5C 296.625,298.479 299.958,298.813 303.5,298.5C 304.263,299.268 305.263,299.768 306.5,300C 305.833,300.333 305.167,300.667 304.5,301C 305.624,301.249 306.624,301.749 307.5,302.5C 309.414,306.578 311.914,310.245 315,313.5C 326.354,323.523 337.354,333.856 348,344.5C 348.973,346.392 349.64,348.392 350,350.5C 358.035,357.035 365.202,364.368 371.5,372.5C 377.388,375.729 383.054,379.229 388.5,383C 391.5,383.333 394.5,383.667 397.5,384C 398,384.5 398.5,385 399,385.5C 399.451,383.071 400.285,382.904 401.5,385C 405.821,385.499 410.154,385.666 414.5,385.5C 414.5,388.167 414.5,390.833 414.5,393.5C 413.847,394.807 413.18,396.14 412.5,397.5C 412.624,398.107 412.957,398.44 413.5,398.5C 413.167,399.5 412.5,400.167 411.5,400.5C 411.103,399.475 410.437,399.308 409.5,400C 407.089,402.514 404.755,405.014 402.5,407.5C 402.5,405.833 402.5,404.167 402.5,402.5C 403.833,402.5 405.167,402.5 406.5,402.5C 406.616,399.09 404.95,397.756 401.5,398.5C 401.5,399.5 401.5,400.5 401.5,401.5C 399.473,401.662 397.473,401.495 395.5,401C 374.964,384.053 355.297,365.386 336.5,345C 334.975,343.991 333.308,343.491 331.5,343.5C 331.649,342.448 331.483,341.448 331,340.5C 323.469,333.303 316.302,325.803 309.5,318C 307.139,315.153 304.139,313.319 300.5,312.5C 297.92,310.085 295.92,307.251 294.5,304C 292.235,302.882 289.901,302.049 287.5,301.5C 287.5,300.167 287.5,298.833 287.5,297.5 Z"/></g>
    <g><path style="opacity:0.012" fill="#9d524f" d="M 411.5,400.5 C 408.167,404.5 404.5,408.167 400.5,411.5C 399.527,409.708 400.194,408.375 402.5,407.5C 404.755,405.014 407.089,402.514 409.5,400C 410.437,399.308 411.103,399.475 411.5,400.5 Z"/></g>
    <g><path style="opacity:1" fill="#a6a8a8" d="M 207.5,270.5 C 208.695,270.866 209.361,271.699 209.5,273C 207.718,274.678 207.385,276.511 208.5,278.5C 209.386,277.675 209.719,276.675 209.5,275.5C 213.314,275.651 214.981,277.651 214.5,281.5C 212.409,281.682 210.409,281.348 208.5,280.5C 206.585,282.071 205.585,284.071 205.5,286.5C 204.167,286.5 202.833,286.5 201.5,286.5C 199.658,292.681 195.658,297.014 189.5,299.5C 188.558,299.392 187.725,299.059 187,298.5C 184.499,302.031 181.666,305.198 178.5,308C 176.874,307.805 175.207,307.805 173.5,308C 173.042,310.831 171.708,313.164 169.5,315C 168.256,315.456 167.423,314.956 167,313.5C 165.316,315.351 163.483,317.018 161.5,318.5C 161.007,321.478 159.507,323.811 157,325.5C 155.221,324.521 153.555,324.854 152,326.5C 150.847,329.47 149.18,332.137 147,334.5C 144.438,334.262 142.104,335.262 140,337.5C 139.791,342.064 137.625,343.898 133.5,343C 130.989,345.326 129.656,348.159 129.5,351.5C 127.109,352.408 124.776,352.574 122.5,352C 120.245,354.092 118.578,356.592 117.5,359.5C 108.098,360.695 105.598,365.362 110,373.5C 111.942,376.22 113.442,379.22 114.5,382.5C 120.081,391.413 126.747,399.413 134.5,406.5C 143.125,413.117 152.792,417.451 163.5,419.5C 163.608,417.217 164.441,415.217 166,413.5C 169.446,411.836 171.779,409.169 173,405.5C 178.026,402.303 181.859,397.969 184.5,392.5C 193.431,384.017 201.431,374.684 208.5,364.5C 216.975,357.871 223.808,349.871 229,340.5C 230.333,339.833 231.667,339.167 233,338.5C 239.105,331.576 244.939,324.576 250.5,317.5C 251.339,318.641 252.006,319.974 252.5,321.5C 250.774,324.227 248.441,326.227 245.5,327.5C 229.312,349.86 211.812,371.193 193,391.5C 191.657,393.839 190.324,396.172 189,398.5C 187.175,399.103 185.341,399.77 183.5,400.5C 179.276,407.565 174.443,414.232 169,420.5C 167.307,421.184 165.807,422.184 164.5,423.5C 162.902,424.485 161.235,424.651 159.5,424C 150.445,421.893 142.778,417.559 136.5,411C 131.8,409.987 127.8,407.654 124.5,404C 119.32,403.154 115.653,400.321 113.5,395.5C 112.675,394.614 111.675,394.281 110.5,394.5C 109.412,390.071 107.079,386.405 103.5,383.5C 102.817,380.587 101.483,378.087 99.5,376C 99.8333,375.667 100.167,375.333 100.5,375C 98.82,375.771 97.1533,375.605 95.5,374.5C 94.4956,371.125 93.4956,367.792 92.5,364.5C 92.5,363.833 92.5,363.167 92.5,362.5C 95.1873,362.664 97.854,362.497 100.5,362C 109.897,353.148 119.897,345.148 130.5,338C 132.527,335.906 134.194,333.573 135.5,331C 159.716,310.939 183.716,290.773 207.5,270.5 Z M 161.5,387.5 C 154.418,395.57 146.418,396.903 137.5,391.5C 128.559,381.111 130.226,372.611 142.5,366C 158.849,364.186 165.182,371.353 161.5,387.5 Z"/></g>
    <g><path style="opacity:0.816" fill="#797671" d="M 161.5,387.5 C 165.182,371.353 158.849,364.186 142.5,366C 130.226,372.611 128.559,381.111 137.5,391.5C 138.031,393.624 139.365,395.124 141.5,396C 149.329,398.105 148.996,398.772 140.5,398C 126.11,388.179 125.11,377.179 137.5,365C 145.578,361.019 153.078,361.853 160,367.5C 163.218,371.331 165.385,375.664 166.5,380.5C 165.482,387.646 161.816,392.479 155.5,395C 158.118,392.894 160.118,390.394 161.5,387.5 Z M 161.5,387.5 C 154.418,395.57 146.418,396.903 137.5,391.5C 128.559,381.111 130.226,372.611 142.5,366C 158.849,364.186 165.182,371.353 161.5,387.5 Z"/></g>
    <g><path style="opacity:0.082" fill="#8f3b3a" d="M 398.5,413.5 C 396.167,415.5 393.833,417.5 391.5,419.5C 392.833,417.167 394.167,414.833 395.5,412.5C 396.779,411.285 397.779,411.618 398.5,413.5 Z"/></g>
    <g><path style="opacity:1" fill="#939493" d="M 243.5,308.5 C 250.427,314.371 256.427,321.037 261.5,328.5C 257.277,332.602 253.277,336.935 249.5,341.5C 248.761,341.369 248.094,341.536 247.5,342C 236.569,354.751 225.902,367.584 215.5,380.5C 200.492,396.678 185.992,413.345 172,430.5C 170.057,433.465 167.39,435.131 164,435.5C 130.354,427.356 107.52,407.023 95.5,374.5C 97.1533,375.605 98.82,375.771 100.5,375C 100.167,375.333 99.8333,375.667 99.5,376C 101.483,378.087 102.817,380.587 103.5,383.5C 107.079,386.405 109.412,390.071 110.5,394.5C 111.675,394.281 112.675,394.614 113.5,395.5C 115.653,400.321 119.32,403.154 124.5,404C 127.8,407.654 131.8,409.987 136.5,411C 142.778,417.559 150.445,421.893 159.5,424C 161.235,424.651 162.902,424.485 164.5,423.5C 165.807,422.184 167.307,421.184 169,420.5C 174.443,414.232 179.276,407.565 183.5,400.5C 185.341,399.77 187.175,399.103 189,398.5C 190.324,396.172 191.657,393.839 193,391.5C 211.812,371.193 229.312,349.86 245.5,327.5C 248.441,326.227 250.774,324.227 252.5,321.5C 252.006,319.974 251.339,318.641 250.5,317.5C 247.761,314.767 245.427,311.767 243.5,308.5 Z"/></g>
    <g><path style="opacity:0.51" fill="#777470" d="M 92.5,364.5 C 93.4956,367.792 94.4956,371.125 95.5,374.5C 107.52,407.023 130.354,427.356 164,435.5C 167.39,435.131 170.057,433.465 172,430.5C 185.992,413.345 200.492,396.678 215.5,380.5C 211.91,385.936 208.077,391.27 204,396.5C 194.291,407.206 184.958,418.206 176,429.5C 172.857,433.487 169.024,436.487 164.5,438.5C 146.429,433.245 130.096,424.745 115.5,413C 105.844,403.508 98.8442,392.342 94.5,379.5C 93.3834,374.477 92.0501,369.477 90.5,364.5C 90.6667,363.167 90.8333,361.833 91,360.5C 91.21,362.058 91.71,363.391 92.5,364.5 Z"/></g>
    <g><path style="opacity:1" fill="#7a2422" d="M 384.5,426.5 C 378.809,433.453 371.476,435.953 362.5,434C 359.975,433.576 357.975,432.41 356.5,430.5C 362.719,432.268 369.052,432.768 375.5,432C 377.107,430.951 377.773,429.451 377.5,427.5C 379.806,427.007 382.139,426.674 384.5,426.5 Z"/></g>
</svg>
